<svg width="202" height="205" viewBox="0 0 202 205" fill="none" xmlns="http://www.w3.org/2000/svg">
<path d="M76.5808 76.113H50.2833L3.46781 205H29.4764L76.5808 76.113Z" fill="#041452"/>
<path d="M76.5808 76.113H50.2833L3.46781 205H29.4764L76.5808 76.113Z" fill="#041452"/>
<path d="M113.571 76.113H87.2733L40.4578 205H66.4664L113.571 76.113Z" fill="#041452"/>
<path d="M151.139 76.113H124.841L78.0257 205H104.034L151.139 76.113Z" fill="#041452"/>
<path d="M178.592 0.399139H152.295L142.18 28.1416H168.767L178.592 0.399139Z" fill="#041452"/>
<path d="M35.834 85.0715H9.53648L0 111.947H26.5866L35.834 85.0715Z" fill="#4BB4AF"/>
<path d="M35.834 85.0715H9.53648L0 111.947H26.5866L35.834 85.0715Z" fill="#4BB4AF"/>
<path d="M127.153 38.5451H100.856L91.319 65.4206H117.906L127.153 38.5451Z" fill="#4BB4AF"/>
<path d="M127.153 38.5451H100.856L91.319 65.4206H117.906L127.153 38.5451Z" fill="#4BB4AF"/>
<path d="M202 38.5451H137.845L128.309 65.4206H192.464L202 38.5451Z" fill="#4BB4AF"/>
<path d="M202 38.5451H137.845L128.309 65.4206H192.464L202 38.5451Z" fill="#4BB4AF"/>
</svg>
